<svg width="1360" height="180" viewBox="0 0 1360 180" fill="none" xmlns="http://www.w3.org/2000/svg">
<rect x="0.5" width="1359" height="180" rx="10" fill="#00647D"/>
<path d="M209.121 0V180H220.931V0H209.121Z" fill="#FAD25A"/>
<g style="mix-blend-mode:multiply" opacity="0.09">
<path d="M208.366 41.3252L185.403 34.9273L180.157 32.6887V34.0285C180.157 35.4382 180.477 36.8437 181.183 38.0648C181.988 39.4575 183.027 40.2483 185.047 40.1359L208.366 41.3252Z" fill="black"/>
</g>
<g style="mix-blend-mode:multiply" opacity="0.09">
<path d="M221.299 41.2235L248.816 39.3473C253.062 38.9848 251.292 35.1966 251.116 32.9241L248.067 33.0343L245.782 34.9274L221.301 41.2235H221.299Z" fill="black"/>
</g>
<path d="M181.882 22.9117L213.71 34.9464L211.096 41.8721L183.173 34.3252C180.725 33.6638 177.778 31.5779 178.013 29.388L181.88 22.9117H181.882Z" fill="#D48442"/>
<path d="M187.577 20.298C192.745 22.2483 206.049 28.3112 210.223 31.9277L213.711 35.6417L212.337 42.0756L181.844 29.6213C180.632 29.1125 178.378 28.4235 178.016 29.3881H178.014L180.182 23.6389C181.302 20.6753 184.611 19.1787 187.574 20.2958L187.577 20.298Z" fill="#FAD25A"/>
<path d="M248.661 24.8685L216.123 34.8235L218.283 41.9019L244.054 35.2836C246.539 34.7811 251.179 33.9417 252.101 31.5801L248.661 24.8685Z" fill="#D48442"/>
<path d="M244.639 21.4364C239.357 23.0496 224.197 28.697 219.796 32.0358L216.123 34.8235L218.283 41.9018L248.264 31.5631C249.509 31.1349 252.101 30.2954 252.101 31.5779L249.852 24.2092C249.178 22.0024 246.844 20.7601 244.637 21.4343L244.639 21.4364Z" fill="#FAD25A"/>
<path d="M219.319 32.6908H210.768L211.457 41.7449C211.514 42.4889 212.135 43.0655 212.881 43.0655H217.655C218.308 43.0655 218.846 42.5525 218.878 41.8996L219.319 32.6929V32.6908Z" fill="#D48442"/>
<path d="M219.33 32.392H210.761L211.787 40.2992C211.855 40.827 212.374 41.2256 212.991 41.2256H217.312C217.956 41.2256 218.492 40.8016 218.548 40.2525L219.332 32.3941L219.33 32.392Z" fill="#FAD876"/>
<g style="mix-blend-mode:multiply" opacity="0.09">
<path d="M183.463 72.7802L205.071 62.1807C206.748 61.3582 207.954 59.8128 208.349 57.9876L211.56 43.0635L210.772 40.8673L201.663 48.2127L183.923 61.5808L183.463 72.778V72.7802Z" fill="black"/>
</g>
<path d="M183.463 72.7801L199.384 59.5583C202.92 56.6223 205.866 53.0418 208.071 49.0076L211.531 42.6755L211.338 40.1359L201.203 44.1976L183.463 57.5656V72.7801Z" fill="#FAD25A"/>
<g style="mix-blend-mode:multiply" opacity="0.09">
<path d="M246.882 72.7801L227.778 61.8923C226.845 61.3602 226.114 60.5335 225.7 59.5435L218.823 43.0656L218.55 42.0756L231.403 48.1851L248.493 59.5795L246.882 72.7801Z" fill="black"/>
</g>
<path d="M246.882 72.7801L232.032 59.6622C229.622 57.5338 227.476 55.1235 225.638 52.4842L218.814 42.6755L219.007 40.1359L231.86 46.2454L246.88 57.5635V72.778L246.882 72.7801Z" fill="#FAD25A"/>
</svg>
