<svg xmlns="http://www.w3.org/2000/svg" width="1391" height="378" viewBox="0 0 1391 378">
  <g id="Frescopa_Logotype" data-name="Frescopa Logotype" transform="translate(17760 11303)">
    <rect id="area" width="1391" height="378" transform="translate(-17760 -11303)" fill="#fff" opacity="0"/>
    <g id="Logo" transform="translate(-17760 -11301)">
      <rect id="area-2" data-name="area" width="1391" height="373.925" fill="none" opacity="0"/>
      <path id="Frescopa" d="M647.735,230.124V224.43h3.748q8.86,0,11.543-2.531a9.777,9.777,0,0,0,3.124-6.066q.437-3.528.437-20.473V103.309q0-16.206-.437-20.418a8.584,8.584,0,0,0-3.554-6.43c-2.082-1.485-5.8-2.228-11.113-2.228h-3.748V68.545q12.359-1.238,31.214-6.189h3.373a57.742,57.742,0,0,1,2.124,16.7A54.923,54.923,0,0,1,701.619,66.5a46.581,46.581,0,0,1,19.414-4.147q21.229,0,35.344,14.786,14.1,14.782,14.1,39.035,0,23.757-14.174,39.716t-37.274,15.962a45.131,45.131,0,0,1-18.172-3.776,56.209,56.209,0,0,1-16.416-11.2V195.36q0,17.568.68,21.4a8,8,0,0,0,3.936,5.756q3.248,1.908,12.119,1.912v5.694ZM699.182,73.985a50.972,50.972,0,0,0-14.736,13.122v61.606a49.847,49.847,0,0,0,14.3,12.31,32.528,32.528,0,0,0,15.916,4.154q14.108,0,24.6-12.008t10.488-38.23q0-22.757-10.106-34.021t-24.1-11.258A33.055,33.055,0,0,0,699.182,73.985ZM544.894,156.944q-15.92-14.906-15.916-40.025,0-23.262,15.729-38.911t38.711-15.652q23.1,0,38.843,15.714t15.729,38.849q0,25.6-15.985,40.273t-38.586,14.662Q560.824,171.854,544.894,156.944ZM558.381,79.37q-8.673,11.316-8.676,38.168,0,26.976,8.864,37.8t24.849,10.825q16.357,0,25.044-10.825t8.676-37.8q0-26.728-8.614-38.106T583.418,68.043Q567.061,68.043,558.381,79.37ZM434.252,157.13q-14.92-14.721-14.917-38.973,0-24.871,16.1-40.335t38.093-15.467a52.244,52.244,0,0,1,24.35,5.749q11.12,5.756,11.113,14.05a9.434,9.434,0,0,1-2.062,5.811,6.971,6.971,0,0,1-5.928,2.723q-8.246,0-10.12-9.532c-.993-4.773-2.54-8.122-4.623-10.02-2.166-1.891-6.358-2.84-12.605-2.84q-16.742,0-25.169,11.5t-8.427,34.647q0,23.881,9.051,37.364T476.524,165.3q24.738,0,31.478-22.275h5.49q-8.5,28.822-42.459,28.829Q449.179,171.854,434.252,157.13Zm-88.59,3.218q-3.384,3.714-5.5,10.632h-4.873V137.7h4.873q8.486,28.833,30.347,28.836,9.485,0,14.167-5.694a19.229,19.229,0,0,0,4.685-12.5,17.742,17.742,0,0,0-5-12.991q-5.123-5.065-19.852-12.248-15.482-7.541-22.233-14.848a24.839,24.839,0,0,1-6.74-17.688q0-10.017,7.24-19.119t20.358-9.092q13.358,0,22.1,10.763,1.874-1.857,4.873-9.03h4.623v31.3h-4.623a42.539,42.539,0,0,0-9.676-19.352q-7.184-8.108-16.923-8.108-7.5,0-12.105,4.573a14.53,14.53,0,0,0-4.63,10.646,15.279,15.279,0,0,0,5.122,11.5q5,4.952,19.1,11.265,21.23,9.521,25.974,18.555a38.213,38.213,0,0,1,4.755,17.571q0,13.245-8.808,21.526t-22.17,8.294Q356.647,171.854,345.663,160.348Zm-96.725,5.007a52.186,52.186,0,0,1-18.915-18.376q-7.372-11.873-7.365-28.822,0-24,14.236-39.9a45.763,45.763,0,0,1,35.58-15.9q20.115,0,31.1,12.124t11.619,26.23H243.877q-.489,7.3-.493,10.893,0,26.718,8.433,40.149t25.155,13.424q22.739,0,32.221-20.178h6a34.688,34.688,0,0,1-15.861,19.738,50.054,50.054,0,0,1-50.393.619Zm-4.553-69.6h48.949a38.035,38.035,0,0,0,.375-5.068q0-10.893-6.427-16.89a22.32,22.32,0,0,0-15.8-6Q248.754,67.8,244.384,95.758Zm619.075,70.161q-4.946-4.467-6.434-13.245a131.741,131.741,0,0,1-22.788,13.245q-10.308,4.446-18.422,4.45a27.843,27.843,0,0,1-17.86-5.942,19.069,19.069,0,0,1-7.49-15.714q0-12.74,12.55-22.261,12.546-9.542,34.65-18.561l19.359-7.8V95.139q0-10.5-1.374-15.212t-7.115-8.411Q842.778,67.8,833.424,67.8q-18.731,0-20.858,12.372-2,12.616-10.488,12.613c-5.081,0-7.615-2.38-7.615-7.173q0-7.046,10.106-15.15t31.478-8.108q15.847,0,24.6,4.952,8.735,4.952,11.543,11.251,2.811,6.324,2.818,19.3v40.96q0,14.349,1.5,18.431c.992,2.716,3.158,4.085,6.49,4.085q8.236,0,10.245-12.124h4.609q-1.124,21.158-20.976,21.154Q868.38,170.368,863.459,165.919Zm-20.046-54.57q-32.224,13-32.214,32.667,0,7.8,4.116,12.558a13.52,13.52,0,0,0,10.738,4.766q5.872,0,13.612-3.837A100.134,100.134,0,0,0,857.024,146V105.909ZM127.627,167.776v-5.694h2.617q7.5,0,10.682-2.043a8.179,8.179,0,0,0,3.8-5.756q.625-3.714.625-21.278V104.423q0-16.33-.43-20.473a8.724,8.724,0,0,0-3.568-6.437q-3.124-2.29-11.113-2.29h-2.617V69.659q11.734-1.362,30.715-7.3,3.623,9.769,4,25.858a42.162,42.162,0,0,1,13.806-18.431q9.537-7.427,18.658-7.427,8.257,0,12.994,5.068,4.737,5.086,4.741,10.4a8.788,8.788,0,0,1-2.429,6.189,7.832,7.832,0,0,1-5.935,2.593q-6.247,0-9.489-9.154-2.249-6.189-6.74-6.189-5.383,0-12.869,7.235-7.5,7.252-9.613,15.04t-2.124,21.4V133q0,16.206.437,20.411a8.558,8.558,0,0,0,3.561,6.43q3.124,2.239,11.113,2.235h3.5v5.694ZM0,167.776v-5.694H5.254q10.859,0,15.035-2.73a12.618,12.618,0,0,0,5.379-8.473q1.177-5.756,1.187-26.787V41.813q0-20.033-1.187-25.851t-5-8.046Q16.86,5.7,4.005,5.694H1V0H131.618l1.374,41.813H127.12q-1.739-13.73-7.8-22.7t-12.675-11.2Q100.032,5.7,84.293,5.694H51.2V76.832H67.058q15.368,0,20.421-5.13t5.053-20.6H98.78v59.137H92.533q0-10.759-2.18-17.007t-6.5-8.541q-4.3-2.29-16.8-2.29H51.2v41.7q0,19.8.993,25.92,1.01,6.128,5.06,9.1t15.673,2.971h5.74v5.694ZM252.124,43.8l18.734-28.829q5.737-8.913,9.058-11.946A10.726,10.726,0,0,1,287.343,0a7.285,7.285,0,0,1,5.622,2.159A6.774,6.774,0,0,1,294.957,6.8a9.723,9.723,0,0,1-2.679,6.43q-2.686,3.095-17.047,14.972L256.247,43.8Z" transform="translate(485.564 99.934)" fill="#58181d" stroke="rgba(0,0,0,0)" stroke-width="1"/>
      <rect id="Line" width="5.115" height="259.805" transform="translate(377.184 57.534)" fill="#58181d"/>
      <path id="Beans" d="M152.258,210.922q-4.274.429-8.687.422c-32.95,0-70.723-17.509-98.9-46.448C-2.478,116.46-14.181,50.6,18.588,18.1,30.694,6.095,47.429-.122,67.1,0c32.186.282,68.336,17.853,96.7,47.006a179.461,179.461,0,0,1,16.213,19.134c15.794-9.663,32.668-15.12,48.332-15.256,15.3-.076,28.251,4.738,37.663,14.078,25.321,25.109,16.457,75.807-19.761,113.006-21.733,22.33-49.47,35.782-74.187,36l-.6.014A58.662,58.662,0,0,1,152.258,210.922Zm19.716-7.088c22.031-.193,47.047-12.5,66.92-32.9,31.512-32.387,40.8-75.262,21.5-97.09-3.459,17.894-16.637,54.679-66.761,69.485-20.983,6.2-34.831,15.8-41.147,28.527-5.8,11.687-3.508,23.035-2.364,27.1A45.683,45.683,0,0,0,171.974,203.834ZM52.038,157.86c23.98,24.626,55.152,40.408,83.349,42.988q-.5-.466-.985-.948c-17.487-17.345-18.665-46.9-5.786-75.782a155.443,155.443,0,0,0-15.239-5.341C67.85,105.332,46.2,78.023,36.052,57.481A112.034,112.034,0,0,1,25.8,25.287C-3.019,53.929,8.741,113.388,52.038,157.86ZM228.447,61.03c-22.038.186-47.054,12.489-66.927,32.894-30.628,31.465-40.261,72.85-23.068,95.194a46.936,46.936,0,0,1,4.772-21.553c7.58-15.46,23.558-26.876,47.491-33.946,52.425-15.483,59.56-56.147,60.528-67.176a44.907,44.907,0,0,0-22.281-5.415ZM116.3,109.067a164.3,164.3,0,0,1,16.858,5.951,132.417,132.417,0,0,1,21-28.123,136.1,136.1,0,0,1,17.376-15.078,169.85,169.85,0,0,0-15.092-17.781c-26.5-27.227-59.93-43.643-89.423-43.89-12.2-.1-22.963,2.585-31.807,7.853C36.155,31.181,44.4,87.832,116.3,109.067Z" transform="translate(3.856 80.807)" fill="#eaa33a" stroke="rgba(0,0,0,0)" stroke-width="1"/>
    </g>
  </g>
</svg>
